;Layer: Drill PTH
;EasyEDA v6.4.0, 2020-08-02T14:52:40+02:00
;aadbe2b07ee54088b09cfdb154852e2a,5bf1b712bda346c5934589caff60f8c7,10
;Gerber Generator version 0.2
M48
METRIC,LZ,000.000
;Holesize 1 = 0.305 METRIC
T01C0.305
;Holesize 2 = 0.701 METRIC
T02C0.701
;Holesize 3 = 0.889 METRIC
T03C0.889
;Holesize 4 = 1.101 METRIC
T04C1.101
%
G05
G90
T01
X+008258Y+027308
X+008258Y+008893
X+007623Y+025530
X+007623Y+006353
X+009528Y+024133
X+009528Y+003813
X+010163Y+005210
X+010163Y+012703
X+010798Y+003178
X+010798Y+015243
X+011433Y+007750
X+011433Y+017783
X+012068Y+010163
X+008893Y+015370
X+008893Y+020958
X+010798Y+022228
X+010798Y+026673
X+028578Y+024133
X+028578Y+012703
X+027943Y+025403
X+027943Y+010163
X+027308Y+021593
X+027308Y+017783
X+026673Y+022863
X+026673Y+015243
X+027943Y+003813
X+027943Y+008893
X+020323Y+008893
X+027308Y+002543
X+027308Y+006353
X+020323Y+006353
X+026038Y+005083
X+026038Y+003813
X+020323Y+003813
X+024768Y+007623
X+024768Y+001273
X+014608Y+001908
T02
X+013338Y+002543
X+013338Y+005083
X+013338Y+007623
X+013338Y+010163
X+013338Y+012703
X+013338Y+015243
X+013338Y+017783
X+013338Y+020323
X+022228Y+020323
X+022228Y+017783
X+022228Y+015243
X+022228Y+012703
X+022228Y+010163
X+022228Y+007623
X+022228Y+005083
X+022228Y+002543
T03
X+019053Y+002543
X+016513Y+002543
X+019053Y+005083
X+016513Y+005083
X+019053Y+007623
X+016513Y+007623
X+019053Y+010163
X+016513Y+010163
X+019053Y+012703
X+016513Y+012703
X+019053Y+015243
X+016513Y+015243
X+019053Y+017783
X+016513Y+017783
X+019053Y+020323
X+016513Y+020323
T04
X+002670Y+025530
X+005210Y+025530
X+002670Y+022990
X+005210Y+022990
X+002670Y+020450
X+005210Y+020450
X+002670Y+017910
X+005210Y+017910
X+002670Y+015370
X+005210Y+015370
X+002670Y+012830
X+005210Y+012830
X+002670Y+010290
X+005210Y+010290
X+002670Y+007750
X+005210Y+007750
X+002670Y+005210
X+005210Y+005210
X+002670Y+002670
X+005210Y+002670
X+030483Y+025403
X+033023Y+025403
X+030483Y+022863
X+033023Y+022863
X+030483Y+020323
X+033023Y+020323
X+030483Y+017783
X+033023Y+017783
X+030483Y+015243
X+033023Y+015243
X+030483Y+012703
X+033023Y+012703
X+030483Y+010163
X+033023Y+010163
X+030483Y+007623
X+033023Y+007623
X+030483Y+005083
X+033023Y+005083
X+030483Y+002543
X+033023Y+002543
X+021593Y+027943
X+021593Y+025403
X+019053Y+027943
X+019053Y+025403
X+016513Y+027943
X+016513Y+025403
X+013973Y+027943
X+013973Y+025403
M30
