G04 Layer: TopSilkLayer*
G04 EasyEDA v6.4.0, 2020-08-02T14:52:40+02:00*
G04 aadbe2b07ee54088b09cfdb154852e2a,5bf1b712bda346c5934589caff60f8c7,10*
G04 Gerber Generator version 0.2*
G04 Scale: 100 percent, Rotated: No, Reflected: No *
G04 Dimensions in millimeters *
G04 leading zeros omitted , absolute positions ,3 integer and 3 decimal *
%FSLAX33Y33*%
%MOMM*%
G90*
G71D02*

%ADD10C,0.254000*%
%ADD17C,0.203200*%

%LPD*%
G54D10*
G01X5845Y1400D02*
G01X2035Y1400D01*
G01X5845Y26799D02*
G01X2035Y26799D01*
G01X5845Y26799D02*
G01X6480Y26164D01*
G01X6480Y24894D01*
G01X5845Y24259D01*
G01X2035Y26799D02*
G01X1400Y26164D01*
G01X1400Y24894D01*
G01X2035Y24259D01*
G01X5845Y24259D02*
G01X6480Y23624D01*
G01X6480Y22354D01*
G01X5845Y21719D01*
G01X2035Y24259D02*
G01X1400Y23624D01*
G01X1400Y22354D01*
G01X2035Y21719D01*
G01X5845Y21719D02*
G01X6480Y21084D01*
G01X6480Y19814D01*
G01X5845Y19179D01*
G01X2035Y21719D02*
G01X1400Y21084D01*
G01X1400Y19814D01*
G01X2035Y19179D01*
G01X5845Y19179D02*
G01X6480Y18544D01*
G01X6480Y17274D01*
G01X5845Y16639D01*
G01X2035Y19179D02*
G01X1400Y18544D01*
G01X1400Y17274D01*
G01X2035Y16639D01*
G01X5845Y16639D02*
G01X6480Y16004D01*
G01X6480Y14734D01*
G01X5845Y14099D01*
G01X2035Y16639D02*
G01X1400Y16004D01*
G01X1400Y14734D01*
G01X2035Y14099D01*
G01X5845Y14099D02*
G01X6480Y13464D01*
G01X6480Y12194D01*
G01X5845Y11559D01*
G01X2035Y14099D02*
G01X1400Y13464D01*
G01X1400Y12194D01*
G01X2035Y11559D01*
G01X5845Y11559D02*
G01X6480Y10924D01*
G01X6480Y9654D01*
G01X5845Y9019D01*
G01X2035Y11559D02*
G01X1400Y10924D01*
G01X1400Y9654D01*
G01X2035Y9019D01*
G01X5845Y9019D02*
G01X6480Y8384D01*
G01X6480Y7114D01*
G01X5845Y6479D01*
G01X2035Y9019D02*
G01X1400Y8384D01*
G01X1400Y7114D01*
G01X2035Y6479D01*
G01X5845Y6479D02*
G01X6480Y5844D01*
G01X6480Y4574D01*
G01X5845Y3939D01*
G01X2035Y6479D02*
G01X1400Y5844D01*
G01X1400Y4574D01*
G01X2035Y3939D01*
G01X5845Y3939D02*
G01X6480Y3304D01*
G01X6480Y2034D01*
G01X5845Y1399D01*
G01X2035Y3939D02*
G01X1400Y3304D01*
G01X1400Y2034D01*
G01X2035Y1399D01*
G01X33658Y1273D02*
G01X29848Y1273D01*
G01X33658Y26672D02*
G01X29848Y26672D01*
G01X33658Y26672D02*
G01X34293Y26037D01*
G01X34293Y24767D01*
G01X33658Y24132D01*
G01X29848Y26672D02*
G01X29213Y26037D01*
G01X29213Y24767D01*
G01X29848Y24132D01*
G01X33658Y24132D02*
G01X34293Y23497D01*
G01X34293Y22227D01*
G01X33658Y21592D01*
G01X29848Y24132D02*
G01X29213Y23497D01*
G01X29213Y22227D01*
G01X29848Y21592D01*
G01X33658Y21592D02*
G01X34293Y20957D01*
G01X34293Y19687D01*
G01X33658Y19052D01*
G01X29848Y21592D02*
G01X29213Y20957D01*
G01X29213Y19687D01*
G01X29848Y19052D01*
G01X33658Y19052D02*
G01X34293Y18417D01*
G01X34293Y17147D01*
G01X33658Y16512D01*
G01X29848Y19052D02*
G01X29213Y18417D01*
G01X29213Y17147D01*
G01X29848Y16512D01*
G01X33658Y16512D02*
G01X34293Y15877D01*
G01X34293Y14607D01*
G01X33658Y13972D01*
G01X29848Y16512D02*
G01X29213Y15877D01*
G01X29213Y14607D01*
G01X29848Y13972D01*
G01X33658Y13972D02*
G01X34293Y13337D01*
G01X34293Y12067D01*
G01X33658Y11432D01*
G01X29848Y13972D02*
G01X29213Y13337D01*
G01X29213Y12067D01*
G01X29848Y11432D01*
G01X33658Y11432D02*
G01X34293Y10797D01*
G01X34293Y9527D01*
G01X33658Y8892D01*
G01X29848Y11432D02*
G01X29213Y10797D01*
G01X29213Y9527D01*
G01X29848Y8892D01*
G01X33658Y8892D02*
G01X34293Y8257D01*
G01X34293Y6987D01*
G01X33658Y6352D01*
G01X29848Y8892D02*
G01X29213Y8257D01*
G01X29213Y6987D01*
G01X29848Y6352D01*
G01X33658Y6352D02*
G01X34293Y5717D01*
G01X34293Y4447D01*
G01X33658Y3812D01*
G01X29848Y6352D02*
G01X29213Y5717D01*
G01X29213Y4447D01*
G01X29848Y3812D01*
G01X33658Y3812D02*
G01X34293Y3177D01*
G01X34293Y1907D01*
G01X33658Y1272D01*
G01X29848Y3812D02*
G01X29213Y3177D01*
G01X29213Y1907D01*
G01X29848Y1272D01*
G54D17*
G01X15243Y21593D02*
G01X15243Y1273D01*
G01X20323Y1273D01*
G01X20323Y21593D01*
G01X15243Y21593D01*
G54D10*
G01X12703Y24767D02*
G01X12703Y28577D01*
G01X22862Y24767D02*
G01X22862Y28577D01*
G01X22862Y24767D02*
G01X22227Y24132D01*
G01X20957Y24132D01*
G01X20322Y24767D01*
G01X22862Y28577D02*
G01X22227Y29212D01*
G01X20957Y29212D01*
G01X20322Y28577D01*
G01X20322Y24767D02*
G01X19687Y24132D01*
G01X18417Y24132D01*
G01X17782Y24767D01*
G01X20322Y28577D02*
G01X19687Y29212D01*
G01X18417Y29212D01*
G01X17782Y28577D01*
G01X17782Y24767D02*
G01X17147Y24132D01*
G01X15877Y24132D01*
G01X15242Y24767D01*
G01X17782Y28577D02*
G01X17147Y29212D01*
G01X15877Y29212D01*
G01X15242Y28577D01*
G01X15242Y24767D02*
G01X14607Y24132D01*
G01X13337Y24132D01*
G01X12702Y24767D01*
G01X15242Y28577D02*
G01X14607Y29212D01*
G01X13337Y29212D01*
G01X12702Y28577D01*

%LPD*%
G36*
G01X11900Y1908D02*
G01X11722Y1908D01*
G01X12200Y419D01*
G01X12393Y419D01*
G01X12870Y1908D01*
G01X12698Y1908D01*
G01X12454Y1085D01*
G01X12434Y1021D01*
G01X12415Y959D01*
G01X12397Y899D01*
G01X12380Y839D01*
G01X12362Y780D01*
G01X12344Y720D01*
G01X12325Y658D01*
G01X12304Y594D01*
G01X12296Y594D01*
G01X12275Y658D01*
G01X12256Y720D01*
G01X12238Y780D01*
G01X12221Y839D01*
G01X12204Y899D01*
G01X12186Y959D01*
G01X12168Y1021D01*
G01X12149Y1085D01*
G01X11900Y1908D01*
G37*

%LPD*%
G36*
G01X9401Y1516D02*
G01X9223Y1516D01*
G01X9558Y993D01*
G01X9192Y419D01*
G01X9368Y419D01*
G01X9525Y686D01*
G01X9554Y736D01*
G01X9581Y786D01*
G01X9610Y836D01*
G01X9639Y884D01*
G01X9650Y884D01*
G01X9680Y836D01*
G01X9710Y786D01*
G01X9741Y736D01*
G01X9771Y686D01*
G01X9939Y419D01*
G01X10119Y419D01*
G01X9759Y975D01*
G01X10091Y1516D01*
G01X9921Y1516D01*
G01X9777Y1267D01*
G01X9751Y1222D01*
G01X9701Y1130D01*
G01X9675Y1085D01*
G01X9667Y1085D01*
G01X9609Y1176D01*
G01X9581Y1222D01*
G01X9556Y1267D01*
G01X9401Y1516D01*
G37*

%LPD*%
G36*
G01X6910Y1540D02*
G01X6850Y1544D01*
G01X6803Y1540D01*
G01X6757Y1530D01*
G01X6712Y1512D01*
G01X6668Y1489D01*
G01X6625Y1461D01*
G01X6585Y1428D01*
G01X6547Y1392D01*
G01X6510Y1354D01*
G01X6502Y1354D01*
G01X6487Y1516D01*
G01X6353Y1516D01*
G01X6353Y419D01*
G01X6518Y419D01*
G01X6518Y1222D01*
G01X6594Y1300D01*
G01X6668Y1355D01*
G01X6738Y1388D01*
G01X6805Y1400D01*
G01X6856Y1395D01*
G01X6900Y1382D01*
G01X6937Y1359D01*
G01X6967Y1327D01*
G01X6990Y1285D01*
G01X7005Y1232D01*
G01X7015Y1169D01*
G01X7018Y1095D01*
G01X7018Y419D01*
G01X7183Y419D01*
G01X7183Y1222D01*
G01X7261Y1300D01*
G01X7335Y1355D01*
G01X7405Y1388D01*
G01X7473Y1400D01*
G01X7524Y1395D01*
G01X7567Y1382D01*
G01X7604Y1359D01*
G01X7634Y1327D01*
G01X7657Y1285D01*
G01X7673Y1232D01*
G01X7683Y1169D01*
G01X7686Y1095D01*
G01X7686Y419D01*
G01X7851Y419D01*
G01X7851Y1115D01*
G01X7849Y1183D01*
G01X7842Y1245D01*
G01X7831Y1301D01*
G01X7815Y1352D01*
G01X7794Y1396D01*
G01X7769Y1436D01*
G01X7739Y1469D01*
G01X7704Y1496D01*
G01X7665Y1517D01*
G01X7621Y1532D01*
G01X7572Y1541D01*
G01X7518Y1544D01*
G01X7470Y1540D01*
G01X7422Y1529D01*
G01X7376Y1510D01*
G01X7331Y1485D01*
G01X7286Y1454D01*
G01X7242Y1418D01*
G01X7197Y1377D01*
G01X7153Y1331D01*
G01X7134Y1377D01*
G01X7111Y1419D01*
G01X7083Y1455D01*
G01X7049Y1486D01*
G01X7009Y1511D01*
G01X6963Y1529D01*
G01X6910Y1540D01*
G37*

%LPD*%
G36*
G01X11539Y1908D02*
G01X10828Y1908D01*
G01X10780Y1217D01*
G01X10871Y1158D01*
G01X10933Y1197D01*
G01X10991Y1225D01*
G01X11053Y1242D01*
G01X11123Y1247D01*
G01X11192Y1241D01*
G01X11254Y1223D01*
G01X11309Y1194D01*
G01X11355Y1154D01*
G01X11392Y1103D01*
G01X11420Y1043D01*
G01X11437Y974D01*
G01X11443Y897D01*
G01X11436Y817D01*
G01X11417Y745D01*
G01X11387Y683D01*
G01X11347Y630D01*
G01X11298Y588D01*
G01X11243Y557D01*
G01X11181Y537D01*
G01X11115Y531D01*
G01X11052Y534D01*
G01X10995Y545D01*
G01X10943Y561D01*
G01X10896Y582D01*
G01X10852Y608D01*
G01X10813Y636D01*
G01X10777Y666D01*
G01X10744Y698D01*
G01X10660Y589D01*
G01X10700Y552D01*
G01X10743Y517D01*
G01X10792Y484D01*
G01X10846Y454D01*
G01X10906Y429D01*
G01X10973Y410D01*
G01X11048Y398D01*
G01X11130Y394D01*
G01X11192Y397D01*
G01X11252Y409D01*
G01X11309Y427D01*
G01X11365Y453D01*
G01X11416Y486D01*
G01X11463Y526D01*
G01X11505Y573D01*
G01X11541Y625D01*
G01X11570Y685D01*
G01X11592Y751D01*
G01X11606Y823D01*
G01X11610Y902D01*
G01X11606Y980D01*
G01X11595Y1051D01*
G01X11575Y1114D01*
G01X11549Y1170D01*
G01X11517Y1220D01*
G01X11479Y1262D01*
G01X11436Y1297D01*
G01X11389Y1326D01*
G01X11337Y1349D01*
G01X11282Y1364D01*
G01X11224Y1374D01*
G01X11163Y1377D01*
G01X11098Y1372D01*
G01X11039Y1359D01*
G01X10985Y1339D01*
G01X10932Y1313D01*
G01X10973Y1765D01*
G01X11539Y1765D01*
G01X11539Y1908D01*
G37*

%LPD*%
G36*
G01X8686Y1541D02*
G01X8623Y1544D01*
G01X8558Y1541D01*
G01X8495Y1531D01*
G01X8435Y1515D01*
G01X8379Y1496D01*
G01X8326Y1473D01*
G01X8278Y1449D01*
G01X8235Y1424D01*
G01X8197Y1400D01*
G01X8263Y1285D01*
G01X8331Y1329D01*
G01X8411Y1368D01*
G01X8499Y1396D01*
G01X8595Y1407D01*
G01X8660Y1401D01*
G01X8713Y1382D01*
G01X8754Y1353D01*
G01X8785Y1315D01*
G01X8807Y1271D01*
G01X8820Y1221D01*
G01X8828Y1167D01*
G01X8829Y1113D01*
G01X8744Y1102D01*
G01X8665Y1089D01*
G01X8592Y1075D01*
G01X8524Y1060D01*
G01X8463Y1042D01*
G01X8407Y1023D01*
G01X8357Y1001D01*
G01X8312Y977D01*
G01X8273Y951D01*
G01X8240Y923D01*
G01X8212Y893D01*
G01X8189Y860D01*
G01X8171Y824D01*
G01X8159Y786D01*
G01X8151Y745D01*
G01X8148Y701D01*
G01X8155Y631D01*
G01X8173Y569D01*
G01X8202Y517D01*
G01X8241Y473D01*
G01X8288Y439D01*
G01X8342Y414D01*
G01X8403Y399D01*
G01X8468Y394D01*
G01X8519Y397D01*
G01X8569Y406D01*
G01X8618Y421D01*
G01X8665Y440D01*
G01X8711Y464D01*
G01X8754Y491D01*
G01X8797Y521D01*
G01X8837Y554D01*
G01X8844Y554D01*
G01X8857Y419D01*
G01X8994Y419D01*
G01X8994Y1100D01*
G01X8992Y1164D01*
G01X8985Y1224D01*
G01X8973Y1281D01*
G01X8957Y1332D01*
G01X8935Y1379D01*
G01X8908Y1421D01*
G01X8875Y1457D01*
G01X8837Y1488D01*
G01X8793Y1512D01*
G01X8743Y1530D01*
G01X8686Y1541D01*
G37*

%LPC*%
G36*
G01X8829Y678D02*
G01X8829Y1001D01*
G01X8737Y988D01*
G01X8656Y974D01*
G01X8584Y957D01*
G01X8521Y939D01*
G01X8468Y918D01*
G01X8423Y895D01*
G01X8386Y870D01*
G01X8357Y843D01*
G01X8335Y813D01*
G01X8320Y781D01*
G01X8311Y747D01*
G01X8308Y711D01*
G01X8325Y626D01*
G01X8368Y569D01*
G01X8433Y536D01*
G01X8512Y526D01*
G01X8593Y535D01*
G01X8671Y565D01*
G01X8748Y613D01*
G01X8829Y678D01*
G37*

%LPD*%

%LPD*%
G36*
G01X24427Y28578D02*
G01X24295Y28578D01*
G01X24653Y27462D01*
G01X24798Y27462D01*
G01X25154Y28578D01*
G01X25027Y28578D01*
G01X24841Y27963D01*
G01X24827Y27915D01*
G01X24813Y27868D01*
G01X24800Y27823D01*
G01X24773Y27733D01*
G01X24759Y27688D01*
G01X24745Y27642D01*
G01X24730Y27595D01*
G01X24724Y27595D01*
G01X24708Y27642D01*
G01X24693Y27688D01*
G01X24654Y27823D01*
G01X24642Y27868D01*
G01X24629Y27915D01*
G01X24615Y27963D01*
G01X24427Y28578D01*
G37*

%LPD*%
G36*
G01X24155Y28578D02*
G01X23622Y28578D01*
G01X23587Y28059D01*
G01X23655Y28016D01*
G01X23701Y28045D01*
G01X23746Y28066D01*
G01X23793Y28080D01*
G01X23846Y28085D01*
G01X23897Y28080D01*
G01X23944Y28067D01*
G01X23985Y28045D01*
G01X24019Y28015D01*
G01X24047Y27977D01*
G01X24068Y27931D01*
G01X24080Y27880D01*
G01X24084Y27821D01*
G01X24079Y27761D01*
G01X24065Y27707D01*
G01X24042Y27660D01*
G01X24012Y27620D01*
G01X23975Y27589D01*
G01X23933Y27566D01*
G01X23887Y27551D01*
G01X23838Y27546D01*
G01X23748Y27557D01*
G01X23673Y27585D01*
G01X23611Y27626D01*
G01X23559Y27673D01*
G01X23498Y27589D01*
G01X23527Y27562D01*
G01X23559Y27536D01*
G01X23595Y27511D01*
G01X23636Y27488D01*
G01X23681Y27470D01*
G01X23731Y27455D01*
G01X23787Y27446D01*
G01X23848Y27442D01*
G01X23894Y27445D01*
G01X23939Y27454D01*
G01X23983Y27468D01*
G01X24024Y27487D01*
G01X24062Y27512D01*
G01X24098Y27542D01*
G01X24130Y27577D01*
G01X24156Y27617D01*
G01X24178Y27662D01*
G01X24195Y27711D01*
G01X24205Y27765D01*
G01X24209Y27823D01*
G01X24202Y27910D01*
G01X24182Y27983D01*
G01X24152Y28045D01*
G01X24111Y28094D01*
G01X24061Y28133D01*
G01X24005Y28160D01*
G01X23943Y28176D01*
G01X23876Y28181D01*
G01X23826Y28178D01*
G01X23782Y28168D01*
G01X23741Y28152D01*
G01X23701Y28133D01*
G01X23731Y28471D01*
G01X24155Y28471D01*
G01X24155Y28578D01*
G37*

%LPD*%

%LPD*%
G36*
G01X25052Y25662D02*
G01X24991Y25667D01*
G01X24911Y25656D01*
G01X24839Y25626D01*
G01X24775Y25581D01*
G01X24714Y25527D01*
G01X24709Y25527D01*
G01X24696Y25646D01*
G01X24595Y25646D01*
G01X24595Y24823D01*
G01X24719Y24823D01*
G01X24719Y25425D01*
G01X24780Y25484D01*
G01X24836Y25526D01*
G01X24892Y25551D01*
G01X24953Y25560D01*
G01X25027Y25546D01*
G01X25078Y25505D01*
G01X25108Y25434D01*
G01X25118Y25331D01*
G01X25118Y24823D01*
G01X25243Y24823D01*
G01X25243Y25347D01*
G01X25239Y25421D01*
G01X25227Y25486D01*
G01X25209Y25541D01*
G01X25182Y25586D01*
G01X25147Y25621D01*
G01X25103Y25646D01*
G01X25052Y25662D01*
G37*

%LPD*%
G36*
G01X26167Y26038D02*
G01X26043Y26038D01*
G01X26043Y25712D01*
G01X26050Y25570D01*
G01X25995Y25611D01*
G01X25940Y25641D01*
G01X25881Y25660D01*
G01X25814Y25667D01*
G01X25767Y25663D01*
G01X25722Y25653D01*
G01X25678Y25636D01*
G01X25637Y25613D01*
G01X25598Y25584D01*
G01X25564Y25549D01*
G01X25533Y25509D01*
G01X25506Y25463D01*
G01X25485Y25413D01*
G01X25469Y25357D01*
G01X25459Y25297D01*
G01X25456Y25232D01*
G01X25458Y25166D01*
G01X25467Y25105D01*
G01X25480Y25049D01*
G01X25498Y24999D01*
G01X25520Y24954D01*
G01X25548Y24915D01*
G01X25580Y24881D01*
G01X25615Y24853D01*
G01X25655Y24832D01*
G01X25699Y24816D01*
G01X25746Y24806D01*
G01X25796Y24803D01*
G01X25868Y24812D01*
G01X25935Y24838D01*
G01X25996Y24876D01*
G01X26050Y24922D01*
G01X26053Y24922D01*
G01X26066Y24823D01*
G01X26167Y24823D01*
G01X26167Y26038D01*
G37*

%LPC*%
G36*
G01X25887Y25557D02*
G01X25834Y25563D01*
G01X25783Y25556D01*
G01X25735Y25539D01*
G01X25693Y25510D01*
G01X25657Y25471D01*
G01X25627Y25423D01*
G01X25604Y25367D01*
G01X25591Y25304D01*
G01X25585Y25235D01*
G01X25590Y25163D01*
G01X25601Y25098D01*
G01X25620Y25043D01*
G01X25646Y24996D01*
G01X25680Y24959D01*
G01X25721Y24932D01*
G01X25768Y24915D01*
G01X25822Y24910D01*
G01X25880Y24917D01*
G01X25935Y24939D01*
G01X25989Y24975D01*
G01X26043Y25027D01*
G01X26043Y25471D01*
G01X25989Y25513D01*
G01X25938Y25542D01*
G01X25887Y25557D01*
G37*

%LPD*%
G36*
G01X24111Y25947D02*
G01X24006Y25959D01*
G01X23951Y25956D01*
G01X23899Y25949D01*
G01X23849Y25936D01*
G01X23802Y25919D01*
G01X23757Y25897D01*
G01X23716Y25871D01*
G01X23676Y25840D01*
G01X23641Y25805D01*
G01X23609Y25765D01*
G01X23580Y25722D01*
G01X23556Y25675D01*
G01X23536Y25624D01*
G01X23519Y25569D01*
G01X23507Y25510D01*
G01X23500Y25448D01*
G01X23498Y25382D01*
G01X23500Y25316D01*
G01X23507Y25253D01*
G01X23518Y25194D01*
G01X23534Y25138D01*
G01X23554Y25087D01*
G01X23578Y25039D01*
G01X23606Y24996D01*
G01X23637Y24957D01*
G01X23672Y24921D01*
G01X23709Y24890D01*
G01X23751Y24864D01*
G01X23794Y24843D01*
G01X23841Y24825D01*
G01X23890Y24813D01*
G01X23942Y24806D01*
G01X23995Y24803D01*
G01X24050Y24806D01*
G01X24102Y24813D01*
G01X24150Y24824D01*
G01X24195Y24839D01*
G01X24236Y24858D01*
G01X24274Y24880D01*
G01X24307Y24905D01*
G01X24336Y24933D01*
G01X24336Y25395D01*
G01X23978Y25395D01*
G01X23978Y25291D01*
G01X24219Y25291D01*
G01X24219Y24986D01*
G01X24178Y24955D01*
G01X24128Y24933D01*
G01X24070Y24919D01*
G01X24008Y24915D01*
G01X23949Y24918D01*
G01X23895Y24930D01*
G01X23846Y24947D01*
G01X23801Y24972D01*
G01X23761Y25004D01*
G01X23726Y25041D01*
G01X23696Y25085D01*
G01X23672Y25134D01*
G01X23653Y25189D01*
G01X23638Y25250D01*
G01X23630Y25315D01*
G01X23627Y25385D01*
G01X23630Y25454D01*
G01X23639Y25519D01*
G01X23654Y25578D01*
G01X23674Y25632D01*
G01X23700Y25681D01*
G01X23731Y25724D01*
G01X23766Y25760D01*
G01X23806Y25791D01*
G01X23851Y25815D01*
G01X23899Y25833D01*
G01X23952Y25843D01*
G01X24008Y25847D01*
G01X24086Y25839D01*
G01X24152Y25817D01*
G01X24206Y25783D01*
G01X24252Y25740D01*
G01X24323Y25824D01*
G01X24268Y25872D01*
G01X24198Y25915D01*
G01X24111Y25947D01*
G37*

%LPD*%

%LPD*%
G36*
G01X23862Y20942D02*
G01X23795Y20947D01*
G01X23733Y20942D01*
G01X23676Y20927D01*
G01X23625Y20902D01*
G01X23581Y20869D01*
G01X23545Y20829D01*
G01X23518Y20780D01*
G01X23501Y20726D01*
G01X23495Y20665D01*
G01X23507Y20584D01*
G01X23541Y20514D01*
G01X23590Y20456D01*
G01X23647Y20409D01*
G01X23647Y20404D01*
G01X23609Y20380D01*
G01X23571Y20352D01*
G01X23536Y20319D01*
G01X23504Y20283D01*
G01X23478Y20242D01*
G01X23457Y20196D01*
G01X23444Y20146D01*
G01X23439Y20091D01*
G01X23446Y20029D01*
G01X23466Y19972D01*
G01X23497Y19921D01*
G01X23540Y19878D01*
G01X23591Y19842D01*
G01X23652Y19817D01*
G01X23719Y19800D01*
G01X23792Y19794D01*
G01X23866Y19800D01*
G01X23933Y19817D01*
G01X23992Y19843D01*
G01X24042Y19878D01*
G01X24083Y19920D01*
G01X24113Y19969D01*
G01X24131Y20023D01*
G01X24138Y20081D01*
G01X24134Y20135D01*
G01X24122Y20183D01*
G01X24104Y20226D01*
G01X24080Y20264D01*
G01X24051Y20297D01*
G01X24019Y20326D01*
G01X23984Y20351D01*
G01X23947Y20373D01*
G01X23947Y20381D01*
G01X23999Y20430D01*
G01X24048Y20493D01*
G01X24085Y20568D01*
G01X24100Y20653D01*
G01X24095Y20714D01*
G01X24079Y20771D01*
G01X24053Y20821D01*
G01X24019Y20864D01*
G01X23975Y20899D01*
G01X23923Y20925D01*
G01X23862Y20942D01*
G37*

%LPC*%
G36*
G01X23773Y20339D02*
G01X23714Y20363D01*
G01X23648Y20313D01*
G01X23597Y20252D01*
G01X23563Y20181D01*
G01X23551Y20102D01*
G01X23556Y20057D01*
G01X23569Y20017D01*
G01X23591Y19981D01*
G01X23621Y19949D01*
G01X23656Y19924D01*
G01X23698Y19904D01*
G01X23744Y19892D01*
G01X23795Y19888D01*
G01X23887Y19903D01*
G01X23957Y19944D01*
G01X24003Y20006D01*
G01X24018Y20084D01*
G01X24012Y20138D01*
G01X23993Y20183D01*
G01X23965Y20223D01*
G01X23927Y20257D01*
G01X23881Y20286D01*
G01X23830Y20313D01*
G01X23773Y20339D01*
G37*
G36*
G01X23877Y20837D02*
G01X23792Y20853D01*
G01X23720Y20840D01*
G01X23662Y20801D01*
G01X23623Y20742D01*
G01X23609Y20665D01*
G01X23615Y20617D01*
G01X23631Y20575D01*
G01X23657Y20538D01*
G01X23690Y20507D01*
G01X23728Y20480D01*
G01X23772Y20456D01*
G01X23819Y20434D01*
G01X23868Y20414D01*
G01X23921Y20467D01*
G01X23959Y20524D01*
G01X23982Y20584D01*
G01X23990Y20648D01*
G01X23977Y20727D01*
G01X23939Y20792D01*
G01X23877Y20837D01*
G37*

%LPD*%

%LPD*%
G36*
G01X23806Y18406D02*
G01X23754Y18410D01*
G01X23691Y18403D01*
G01X23632Y18383D01*
G01X23578Y18352D01*
G01X23532Y18309D01*
G01X23494Y18257D01*
G01X23464Y18196D01*
G01X23446Y18126D01*
G01X23439Y18049D01*
G01X23445Y17968D01*
G01X23461Y17898D01*
G01X23487Y17838D01*
G01X23522Y17788D01*
G01X23566Y17750D01*
G01X23618Y17722D01*
G01X23677Y17704D01*
G01X23744Y17699D01*
G01X23816Y17709D01*
G01X23885Y17738D01*
G01X23949Y17784D01*
G01X24006Y17841D01*
G01X24001Y17756D01*
G01X23991Y17681D01*
G01X23977Y17614D01*
G01X23959Y17556D01*
G01X23938Y17507D01*
G01X23914Y17466D01*
G01X23886Y17431D01*
G01X23856Y17404D01*
G01X23824Y17383D01*
G01X23790Y17369D01*
G01X23755Y17361D01*
G01X23719Y17358D01*
G01X23665Y17364D01*
G01X23615Y17382D01*
G01X23569Y17409D01*
G01X23528Y17445D01*
G01X23460Y17366D01*
G01X23510Y17322D01*
G01X23570Y17286D01*
G01X23640Y17263D01*
G01X23724Y17254D01*
G01X23762Y17256D01*
G01X23800Y17262D01*
G01X23837Y17273D01*
G01X23873Y17288D01*
G01X23908Y17308D01*
G01X23940Y17333D01*
G01X23971Y17363D01*
G01X24000Y17397D01*
G01X24027Y17438D01*
G01X24050Y17484D01*
G01X24072Y17536D01*
G01X24089Y17593D01*
G01X24103Y17656D01*
G01X24114Y17726D01*
G01X24120Y17802D01*
G01X24122Y17884D01*
G01X24119Y17967D01*
G01X24110Y18044D01*
G01X24095Y18113D01*
G01X24074Y18175D01*
G01X24049Y18230D01*
G01X24018Y18277D01*
G01X23983Y18318D01*
G01X23945Y18351D01*
G01X23901Y18377D01*
G01X23856Y18395D01*
G01X23806Y18406D01*
G37*

%LPC*%
G36*
G01X23807Y18307D02*
G01X23754Y18313D01*
G01X23714Y18308D01*
G01X23676Y18294D01*
G01X23643Y18271D01*
G01X23614Y18240D01*
G01X23591Y18202D01*
G01X23573Y18157D01*
G01X23563Y18106D01*
G01X23559Y18049D01*
G01X23562Y17994D01*
G01X23571Y17945D01*
G01X23587Y17901D01*
G01X23609Y17864D01*
G01X23638Y17834D01*
G01X23673Y17811D01*
G01X23716Y17797D01*
G01X23764Y17793D01*
G01X23823Y17801D01*
G01X23884Y17828D01*
G01X23945Y17877D01*
G01X24006Y17948D01*
G01X23997Y18030D01*
G01X23982Y18102D01*
G01X23960Y18165D01*
G01X23931Y18217D01*
G01X23896Y18259D01*
G01X23855Y18289D01*
G01X23807Y18307D01*
G37*

%LPD*%

%LPD*%
G36*
G01X23879Y15850D02*
G01X23785Y15850D01*
G01X23738Y15825D01*
G01X23686Y15805D01*
G01X23627Y15788D01*
G01X23559Y15773D01*
G01X23559Y15692D01*
G01X23757Y15692D01*
G01X23757Y14839D01*
G01X23505Y14839D01*
G01X23505Y14735D01*
G01X24107Y14735D01*
G01X24107Y14839D01*
G01X23879Y14839D01*
G01X23879Y15850D01*
G37*

%LPD*%
G36*
G01X24676Y15866D02*
G01X24625Y15870D01*
G01X24575Y15866D01*
G01X24528Y15854D01*
G01X24484Y15835D01*
G01X24444Y15807D01*
G01X24408Y15772D01*
G01X24376Y15729D01*
G01X24348Y15677D01*
G01X24325Y15617D01*
G01X24307Y15549D01*
G01X24294Y15473D01*
G01X24285Y15389D01*
G01X24282Y15296D01*
G01X24285Y15203D01*
G01X24294Y15118D01*
G01X24307Y15041D01*
G01X24325Y14972D01*
G01X24348Y14912D01*
G01X24376Y14860D01*
G01X24408Y14815D01*
G01X24444Y14779D01*
G01X24484Y14750D01*
G01X24528Y14730D01*
G01X24575Y14718D01*
G01X24625Y14714D01*
G01X24676Y14718D01*
G01X24724Y14730D01*
G01X24768Y14750D01*
G01X24807Y14779D01*
G01X24843Y14815D01*
G01X24875Y14860D01*
G01X24902Y14912D01*
G01X24925Y14972D01*
G01X24942Y15041D01*
G01X24955Y15118D01*
G01X24963Y15203D01*
G01X24966Y15296D01*
G01X24963Y15388D01*
G01X24955Y15473D01*
G01X24942Y15548D01*
G01X24925Y15616D01*
G01X24902Y15676D01*
G01X24875Y15728D01*
G01X24843Y15771D01*
G01X24807Y15807D01*
G01X24768Y15834D01*
G01X24724Y15854D01*
G01X24676Y15866D01*
G37*

%LPC*%
G36*
G01X24673Y15761D02*
G01X24625Y15768D01*
G01X24578Y15761D01*
G01X24535Y15740D01*
G01X24497Y15705D01*
G01X24465Y15655D01*
G01X24439Y15589D01*
G01X24420Y15508D01*
G01X24408Y15410D01*
G01X24404Y15296D01*
G01X24406Y15217D01*
G01X24411Y15146D01*
G01X24420Y15081D01*
G01X24432Y15025D01*
G01X24448Y14975D01*
G01X24465Y14932D01*
G01X24486Y14896D01*
G01X24510Y14867D01*
G01X24535Y14844D01*
G01X24563Y14829D01*
G01X24593Y14819D01*
G01X24625Y14816D01*
G01X24657Y14819D01*
G01X24687Y14829D01*
G01X24716Y14844D01*
G01X24741Y14867D01*
G01X24765Y14896D01*
G01X24785Y14932D01*
G01X24803Y14975D01*
G01X24818Y15025D01*
G01X24831Y15081D01*
G01X24839Y15146D01*
G01X24844Y15217D01*
G01X24846Y15296D01*
G01X24842Y15410D01*
G01X24831Y15508D01*
G01X24811Y15589D01*
G01X24785Y15655D01*
G01X24753Y15705D01*
G01X24716Y15740D01*
G01X24673Y15761D01*
G37*

%LPD*%

%LPD*%
G36*
G01X24717Y13310D02*
G01X24623Y13310D01*
G01X24577Y13285D01*
G01X24524Y13265D01*
G01X24465Y13248D01*
G01X24397Y13233D01*
G01X24397Y13152D01*
G01X24592Y13152D01*
G01X24592Y12299D01*
G01X24343Y12299D01*
G01X24343Y12195D01*
G01X24943Y12195D01*
G01X24943Y12299D01*
G01X24717Y12299D01*
G01X24717Y13310D01*
G37*

%LPD*%
G36*
G01X23879Y13310D02*
G01X23785Y13310D01*
G01X23738Y13285D01*
G01X23686Y13265D01*
G01X23627Y13248D01*
G01X23559Y13233D01*
G01X23559Y13152D01*
G01X23757Y13152D01*
G01X23757Y12299D01*
G01X23505Y12299D01*
G01X23505Y12195D01*
G01X24107Y12195D01*
G01X24107Y12299D01*
G01X23879Y12299D01*
G01X23879Y13310D01*
G37*

%LPD*%

%LPD*%
G36*
G01X24663Y10784D02*
G01X24592Y10790D01*
G01X24543Y10787D01*
G01X24496Y10778D01*
G01X24453Y10764D01*
G01X24413Y10745D01*
G01X24374Y10721D01*
G01X24337Y10693D01*
G01X24302Y10662D01*
G01X24267Y10627D01*
G01X24341Y10556D01*
G01X24392Y10609D01*
G01X24449Y10651D01*
G01X24512Y10678D01*
G01X24580Y10688D01*
G01X24629Y10684D01*
G01X24673Y10671D01*
G01X24709Y10650D01*
G01X24739Y10623D01*
G01X24762Y10589D01*
G01X24778Y10550D01*
G01X24787Y10507D01*
G01X24790Y10460D01*
G01X24788Y10423D01*
G01X24783Y10386D01*
G01X24774Y10347D01*
G01X24760Y10308D01*
G01X24743Y10268D01*
G01X24722Y10226D01*
G01X24696Y10183D01*
G01X24667Y10139D01*
G01X24633Y10093D01*
G01X24595Y10046D01*
G01X24553Y9997D01*
G01X24506Y9947D01*
G01X24455Y9895D01*
G01X24400Y9841D01*
G01X24340Y9786D01*
G01X24275Y9728D01*
G01X24275Y9655D01*
G01X24966Y9655D01*
G01X24966Y9761D01*
G01X24602Y9761D01*
G01X24556Y9759D01*
G01X24509Y9756D01*
G01X24463Y9751D01*
G01X24513Y9799D01*
G01X24561Y9846D01*
G01X24606Y9893D01*
G01X24649Y9939D01*
G01X24689Y9985D01*
G01X24725Y10030D01*
G01X24759Y10075D01*
G01X24790Y10119D01*
G01X24818Y10164D01*
G01X24842Y10207D01*
G01X24864Y10251D01*
G01X24881Y10294D01*
G01X24895Y10337D01*
G01X24904Y10380D01*
G01X24910Y10422D01*
G01X24912Y10465D01*
G01X24907Y10535D01*
G01X24890Y10599D01*
G01X24863Y10655D01*
G01X24827Y10702D01*
G01X24781Y10739D01*
G01X24726Y10767D01*
G01X24663Y10784D01*
G37*

%LPD*%
G36*
G01X23879Y10770D02*
G01X23785Y10770D01*
G01X23738Y10745D01*
G01X23686Y10725D01*
G01X23627Y10708D01*
G01X23559Y10693D01*
G01X23559Y10612D01*
G01X23757Y10612D01*
G01X23757Y9759D01*
G01X23505Y9759D01*
G01X23505Y9655D01*
G01X24107Y9655D01*
G01X24107Y9759D01*
G01X23879Y9759D01*
G01X23879Y10770D01*
G37*

%LPD*%

%LPD*%
G36*
G01X23879Y8230D02*
G01X23785Y8230D01*
G01X23738Y8205D01*
G01X23686Y8185D01*
G01X23627Y8168D01*
G01X23559Y8153D01*
G01X23559Y8072D01*
G01X23757Y8072D01*
G01X23757Y7219D01*
G01X23505Y7219D01*
G01X23505Y7115D01*
G01X24107Y7115D01*
G01X24107Y7219D01*
G01X23879Y7219D01*
G01X23879Y8230D01*
G37*

%LPD*%
G36*
G01X24669Y8247D02*
G01X24603Y8252D01*
G01X24511Y8241D01*
G01X24431Y8213D01*
G01X24359Y8171D01*
G01X24295Y8118D01*
G01X24364Y8039D01*
G01X24413Y8083D01*
G01X24469Y8118D01*
G01X24531Y8141D01*
G01X24597Y8151D01*
G01X24678Y8137D01*
G01X24740Y8099D01*
G01X24779Y8041D01*
G01X24793Y7965D01*
G01X24789Y7920D01*
G01X24777Y7879D01*
G01X24755Y7841D01*
G01X24723Y7808D01*
G01X24680Y7782D01*
G01X24626Y7762D01*
G01X24559Y7749D01*
G01X24478Y7744D01*
G01X24478Y7645D01*
G01X24567Y7641D01*
G01X24643Y7629D01*
G01X24704Y7609D01*
G01X24752Y7582D01*
G01X24788Y7549D01*
G01X24812Y7509D01*
G01X24827Y7465D01*
G01X24831Y7414D01*
G01X24827Y7367D01*
G01X24814Y7325D01*
G01X24794Y7288D01*
G01X24766Y7257D01*
G01X24732Y7232D01*
G01X24693Y7214D01*
G01X24649Y7202D01*
G01X24600Y7198D01*
G01X24508Y7210D01*
G01X24432Y7238D01*
G01X24370Y7280D01*
G01X24318Y7328D01*
G01X24252Y7247D01*
G01X24281Y7218D01*
G01X24314Y7191D01*
G01X24351Y7165D01*
G01X24392Y7142D01*
G01X24437Y7122D01*
G01X24488Y7107D01*
G01X24545Y7098D01*
G01X24608Y7094D01*
G01X24678Y7100D01*
G01X24744Y7116D01*
G01X24803Y7142D01*
G01X24855Y7179D01*
G01X24898Y7224D01*
G01X24931Y7279D01*
G01X24951Y7341D01*
G01X24958Y7412D01*
G01X24953Y7467D01*
G01X24939Y7517D01*
G01X24917Y7562D01*
G01X24888Y7601D01*
G01X24853Y7634D01*
G01X24812Y7661D01*
G01X24768Y7681D01*
G01X24719Y7696D01*
G01X24719Y7704D01*
G01X24762Y7722D01*
G01X24801Y7744D01*
G01X24835Y7771D01*
G01X24865Y7802D01*
G01X24888Y7838D01*
G01X24905Y7879D01*
G01X24916Y7924D01*
G01X24920Y7973D01*
G01X24914Y8036D01*
G01X24896Y8091D01*
G01X24868Y8139D01*
G01X24830Y8178D01*
G01X24783Y8210D01*
G01X24730Y8233D01*
G01X24669Y8247D01*
G37*

%LPD*%

%LPD*%
G36*
G01X24844Y5690D02*
G01X24709Y5690D01*
G01X24237Y4966D01*
G01X24237Y4884D01*
G01X24724Y4884D01*
G01X24724Y4575D01*
G01X24844Y4575D01*
G01X24844Y4884D01*
G01X24996Y4884D01*
G01X24996Y4983D01*
G01X24844Y4983D01*
G01X24844Y5690D01*
G37*

%LPC*%
G36*
G01X24735Y5545D02*
G01X24727Y5545D01*
G01X24706Y5505D01*
G01X24683Y5465D01*
G01X24661Y5425D01*
G01X24638Y5385D01*
G01X24369Y4983D01*
G01X24724Y4983D01*
G01X24724Y5347D01*
G01X24725Y5394D01*
G01X24727Y5447D01*
G01X24731Y5499D01*
G01X24735Y5545D01*
G37*

%LPD*%
G36*
G01X23879Y5690D02*
G01X23785Y5690D01*
G01X23738Y5665D01*
G01X23686Y5645D01*
G01X23627Y5628D01*
G01X23559Y5613D01*
G01X23559Y5532D01*
G01X23757Y5532D01*
G01X23757Y4679D01*
G01X23505Y4679D01*
G01X23505Y4575D01*
G01X24107Y4575D01*
G01X24107Y4679D01*
G01X23879Y4679D01*
G01X23879Y5690D01*
G37*

%LPD*%

%LPD*%
G36*
G01X23879Y3150D02*
G01X23785Y3150D01*
G01X23738Y3125D01*
G01X23686Y3105D01*
G01X23627Y3088D01*
G01X23559Y3073D01*
G01X23559Y2992D01*
G01X23757Y2992D01*
G01X23757Y2139D01*
G01X23505Y2139D01*
G01X23505Y2035D01*
G01X24107Y2035D01*
G01X24107Y2139D01*
G01X23879Y2139D01*
G01X23879Y3150D01*
G37*

%LPD*%
G36*
G01X24907Y3150D02*
G01X24374Y3150D01*
G01X24341Y2631D01*
G01X24409Y2588D01*
G01X24455Y2617D01*
G01X24499Y2639D01*
G01X24545Y2652D01*
G01X24597Y2657D01*
G01X24649Y2652D01*
G01X24696Y2639D01*
G01X24737Y2617D01*
G01X24771Y2587D01*
G01X24799Y2549D01*
G01X24819Y2503D01*
G01X24832Y2452D01*
G01X24836Y2393D01*
G01X24831Y2333D01*
G01X24817Y2279D01*
G01X24794Y2232D01*
G01X24764Y2193D01*
G01X24727Y2161D01*
G01X24686Y2138D01*
G01X24641Y2123D01*
G01X24592Y2118D01*
G01X24501Y2129D01*
G01X24426Y2157D01*
G01X24364Y2198D01*
G01X24313Y2245D01*
G01X24249Y2162D01*
G01X24279Y2134D01*
G01X24312Y2108D01*
G01X24349Y2083D01*
G01X24389Y2060D01*
G01X24434Y2042D01*
G01X24484Y2027D01*
G01X24540Y2018D01*
G01X24603Y2014D01*
G01X24648Y2017D01*
G01X24692Y2026D01*
G01X24736Y2040D01*
G01X24777Y2059D01*
G01X24815Y2084D01*
G01X24850Y2114D01*
G01X24881Y2149D01*
G01X24908Y2189D01*
G01X24930Y2234D01*
G01X24947Y2283D01*
G01X24957Y2337D01*
G01X24961Y2395D01*
G01X24954Y2482D01*
G01X24935Y2555D01*
G01X24904Y2617D01*
G01X24864Y2666D01*
G01X24815Y2705D01*
G01X24758Y2732D01*
G01X24695Y2748D01*
G01X24628Y2753D01*
G01X24578Y2750D01*
G01X24534Y2740D01*
G01X24494Y2724D01*
G01X24455Y2705D01*
G01X24486Y3043D01*
G01X24907Y3043D01*
G01X24907Y3150D01*
G37*

%LPD*%

%LPD*%
G36*
G01X11902Y20946D02*
G01X11852Y20950D01*
G01X11801Y20946D01*
G01X11753Y20934D01*
G01X11709Y20915D01*
G01X11669Y20887D01*
G01X11633Y20852D01*
G01X11601Y20809D01*
G01X11574Y20757D01*
G01X11551Y20697D01*
G01X11533Y20629D01*
G01X11519Y20553D01*
G01X11511Y20469D01*
G01X11509Y20376D01*
G01X11511Y20283D01*
G01X11519Y20198D01*
G01X11533Y20121D01*
G01X11551Y20052D01*
G01X11574Y19992D01*
G01X11601Y19940D01*
G01X11633Y19895D01*
G01X11669Y19859D01*
G01X11709Y19830D01*
G01X11753Y19810D01*
G01X11801Y19798D01*
G01X11852Y19794D01*
G01X11902Y19798D01*
G01X11949Y19810D01*
G01X11993Y19830D01*
G01X12033Y19859D01*
G01X12068Y19895D01*
G01X12100Y19940D01*
G01X12128Y19992D01*
G01X12150Y20052D01*
G01X12168Y20121D01*
G01X12181Y20198D01*
G01X12190Y20283D01*
G01X12192Y20376D01*
G01X12190Y20468D01*
G01X12181Y20553D01*
G01X12168Y20628D01*
G01X12150Y20696D01*
G01X12128Y20756D01*
G01X12100Y20808D01*
G01X12068Y20851D01*
G01X12033Y20887D01*
G01X11993Y20914D01*
G01X11949Y20934D01*
G01X11902Y20946D01*
G37*

%LPC*%
G36*
G01X11899Y20841D02*
G01X11852Y20848D01*
G01X11804Y20841D01*
G01X11761Y20820D01*
G01X11723Y20785D01*
G01X11691Y20735D01*
G01X11664Y20669D01*
G01X11644Y20588D01*
G01X11632Y20490D01*
G01X11628Y20376D01*
G01X11630Y20297D01*
G01X11636Y20226D01*
G01X11644Y20161D01*
G01X11657Y20105D01*
G01X11672Y20055D01*
G01X11691Y20012D01*
G01X11711Y19976D01*
G01X11735Y19947D01*
G01X11761Y19924D01*
G01X11789Y19909D01*
G01X11820Y19899D01*
G01X11852Y19896D01*
G01X11884Y19899D01*
G01X11914Y19909D01*
G01X11942Y19924D01*
G01X11967Y19947D01*
G01X11990Y19976D01*
G01X12011Y20012D01*
G01X12028Y20055D01*
G01X12043Y20105D01*
G01X12054Y20161D01*
G01X12063Y20226D01*
G01X12069Y20297D01*
G01X12070Y20376D01*
G01X12066Y20490D01*
G01X12054Y20588D01*
G01X12036Y20669D01*
G01X12011Y20735D01*
G01X11979Y20785D01*
G01X11942Y20820D01*
G01X11899Y20841D01*
G37*

%LPD*%

%LPD*%
G36*
G01X11941Y18390D02*
G01X11847Y18390D01*
G01X11800Y18365D01*
G01X11748Y18345D01*
G01X11688Y18328D01*
G01X11621Y18313D01*
G01X11621Y18232D01*
G01X11819Y18232D01*
G01X11819Y17379D01*
G01X11567Y17379D01*
G01X11567Y17275D01*
G01X12169Y17275D01*
G01X12169Y17379D01*
G01X11941Y17379D01*
G01X11941Y18390D01*
G37*

%LPD*%

%LPD*%
G36*
G01X11889Y15864D02*
G01X11819Y15870D01*
G01X11768Y15867D01*
G01X11721Y15858D01*
G01X11678Y15844D01*
G01X11637Y15825D01*
G01X11599Y15801D01*
G01X11562Y15773D01*
G01X11527Y15742D01*
G01X11494Y15707D01*
G01X11567Y15636D01*
G01X11618Y15689D01*
G01X11675Y15731D01*
G01X11737Y15758D01*
G01X11803Y15768D01*
G01X11854Y15764D01*
G01X11898Y15751D01*
G01X11935Y15730D01*
G01X11964Y15703D01*
G01X11987Y15669D01*
G01X12004Y15630D01*
G01X12014Y15587D01*
G01X12017Y15540D01*
G01X12015Y15503D01*
G01X12009Y15466D01*
G01X12000Y15427D01*
G01X11986Y15388D01*
G01X11969Y15347D01*
G01X11947Y15306D01*
G01X11922Y15263D01*
G01X11892Y15219D01*
G01X11859Y15173D01*
G01X11821Y15126D01*
G01X11778Y15077D01*
G01X11732Y15027D01*
G01X11681Y14975D01*
G01X11625Y14921D01*
G01X11566Y14866D01*
G01X11501Y14808D01*
G01X11501Y14735D01*
G01X12192Y14735D01*
G01X12192Y14841D01*
G01X11828Y14841D01*
G01X11782Y14839D01*
G01X11735Y14836D01*
G01X11689Y14831D01*
G01X11739Y14879D01*
G01X11786Y14926D01*
G01X11832Y14973D01*
G01X11874Y15019D01*
G01X11914Y15065D01*
G01X11951Y15110D01*
G01X11985Y15155D01*
G01X12016Y15199D01*
G01X12044Y15243D01*
G01X12068Y15287D01*
G01X12089Y15331D01*
G01X12107Y15374D01*
G01X12121Y15417D01*
G01X12131Y15460D01*
G01X12137Y15502D01*
G01X12139Y15545D01*
G01X12133Y15616D01*
G01X12117Y15679D01*
G01X12090Y15735D01*
G01X12053Y15782D01*
G01X12007Y15819D01*
G01X11952Y15847D01*
G01X11889Y15864D01*
G37*

%LPD*%

%LPD*%
G36*
G01X11892Y13327D02*
G01X11826Y13332D01*
G01X11736Y13321D01*
G01X11656Y13293D01*
G01X11584Y13251D01*
G01X11519Y13198D01*
G01X11588Y13119D01*
G01X11638Y13163D01*
G01X11695Y13198D01*
G01X11757Y13221D01*
G01X11824Y13231D01*
G01X11904Y13217D01*
G01X11965Y13179D01*
G01X12003Y13121D01*
G01X12017Y13045D01*
G01X12013Y13000D01*
G01X12001Y12958D01*
G01X11980Y12921D01*
G01X11948Y12888D01*
G01X11906Y12862D01*
G01X11852Y12841D01*
G01X11785Y12829D01*
G01X11704Y12824D01*
G01X11704Y12725D01*
G01X11794Y12721D01*
G01X11869Y12709D01*
G01X11930Y12689D01*
G01X11978Y12662D01*
G01X12014Y12629D01*
G01X12039Y12589D01*
G01X12053Y12544D01*
G01X12057Y12494D01*
G01X12053Y12447D01*
G01X12040Y12405D01*
G01X12020Y12368D01*
G01X11992Y12337D01*
G01X11958Y12312D01*
G01X11918Y12294D01*
G01X11873Y12282D01*
G01X11824Y12278D01*
G01X11733Y12289D01*
G01X11658Y12318D01*
G01X11595Y12360D01*
G01X11542Y12408D01*
G01X11478Y12327D01*
G01X11507Y12298D01*
G01X11539Y12271D01*
G01X11576Y12245D01*
G01X11617Y12222D01*
G01X11663Y12202D01*
G01X11713Y12187D01*
G01X11770Y12178D01*
G01X11831Y12174D01*
G01X11903Y12180D01*
G01X11969Y12196D01*
G01X12028Y12222D01*
G01X12080Y12259D01*
G01X12123Y12304D01*
G01X12155Y12359D01*
G01X12175Y12421D01*
G01X12182Y12492D01*
G01X12177Y12547D01*
G01X12163Y12597D01*
G01X12141Y12642D01*
G01X12112Y12681D01*
G01X12077Y12714D01*
G01X12037Y12741D01*
G01X11993Y12762D01*
G01X11946Y12776D01*
G01X11946Y12784D01*
G01X11988Y12801D01*
G01X12026Y12824D01*
G01X12060Y12851D01*
G01X12089Y12882D01*
G01X12112Y12918D01*
G01X12129Y12959D01*
G01X12140Y13004D01*
G01X12144Y13053D01*
G01X12138Y13116D01*
G01X12120Y13171D01*
G01X12092Y13219D01*
G01X12054Y13258D01*
G01X12007Y13290D01*
G01X11953Y13313D01*
G01X11892Y13327D01*
G37*

%LPD*%

%LPD*%
G36*
G01X12068Y10770D02*
G01X11936Y10770D01*
G01X11461Y10046D01*
G01X11461Y9964D01*
G01X11951Y9964D01*
G01X11951Y9655D01*
G01X12068Y9655D01*
G01X12068Y9964D01*
G01X12220Y9964D01*
G01X12220Y10063D01*
G01X12068Y10063D01*
G01X12068Y10770D01*
G37*

%LPC*%
G36*
G01X11961Y10625D02*
G01X11953Y10625D01*
G01X11932Y10585D01*
G01X11910Y10545D01*
G01X11864Y10465D01*
G01X11595Y10063D01*
G01X11951Y10063D01*
G01X11951Y10427D01*
G01X11952Y10474D01*
G01X11954Y10527D01*
G01X11957Y10579D01*
G01X11961Y10625D01*
G37*

%LPD*%

%LPD*%
G36*
G01X12134Y8230D02*
G01X11600Y8230D01*
G01X11565Y7711D01*
G01X11633Y7668D01*
G01X11679Y7697D01*
G01X11724Y7719D01*
G01X11771Y7732D01*
G01X11824Y7737D01*
G01X11876Y7732D01*
G01X11922Y7719D01*
G01X11963Y7697D01*
G01X11997Y7667D01*
G01X12025Y7629D01*
G01X12046Y7584D01*
G01X12058Y7531D01*
G01X12063Y7473D01*
G01X12057Y7413D01*
G01X12043Y7359D01*
G01X12020Y7312D01*
G01X11990Y7273D01*
G01X11953Y7241D01*
G01X11911Y7218D01*
G01X11865Y7203D01*
G01X11816Y7198D01*
G01X11726Y7209D01*
G01X11652Y7237D01*
G01X11590Y7278D01*
G01X11537Y7325D01*
G01X11476Y7242D01*
G01X11505Y7214D01*
G01X11537Y7187D01*
G01X11574Y7163D01*
G01X11614Y7140D01*
G01X11659Y7121D01*
G01X11709Y7107D01*
G01X11765Y7098D01*
G01X11826Y7094D01*
G01X11872Y7097D01*
G01X11917Y7106D01*
G01X11961Y7120D01*
G01X12002Y7139D01*
G01X12041Y7164D01*
G01X12076Y7194D01*
G01X12108Y7229D01*
G01X12135Y7269D01*
G01X12157Y7314D01*
G01X12173Y7363D01*
G01X12183Y7417D01*
G01X12187Y7475D01*
G01X12180Y7561D01*
G01X12161Y7635D01*
G01X12130Y7697D01*
G01X12089Y7747D01*
G01X12040Y7785D01*
G01X11983Y7812D01*
G01X11921Y7828D01*
G01X11854Y7833D01*
G01X11804Y7830D01*
G01X11760Y7820D01*
G01X11719Y7804D01*
G01X11679Y7785D01*
G01X11709Y8123D01*
G01X12134Y8123D01*
G01X12134Y8230D01*
G37*

%LPD*%

%LPD*%
G36*
G01X12006Y5701D02*
G01X11928Y5710D01*
G01X11888Y5708D01*
G01X11849Y5702D01*
G01X11811Y5692D01*
G01X11774Y5677D01*
G01X11738Y5658D01*
G01X11705Y5635D01*
G01X11673Y5606D01*
G01X11643Y5572D01*
G01X11616Y5534D01*
G01X11592Y5490D01*
G01X11571Y5440D01*
G01X11553Y5385D01*
G01X11538Y5324D01*
G01X11528Y5257D01*
G01X11521Y5185D01*
G01X11519Y5105D01*
G01X11522Y5018D01*
G01X11532Y4938D01*
G01X11546Y4865D01*
G01X11567Y4800D01*
G01X11593Y4743D01*
G01X11623Y4692D01*
G01X11658Y4650D01*
G01X11697Y4616D01*
G01X11740Y4589D01*
G01X11786Y4569D01*
G01X11835Y4558D01*
G01X11887Y4554D01*
G01X11950Y4561D01*
G01X12008Y4581D01*
G01X12062Y4612D01*
G01X12109Y4654D01*
G01X12147Y4707D01*
G01X12177Y4769D01*
G01X12196Y4838D01*
G01X12202Y4915D01*
G01X12197Y4997D01*
G01X12180Y5068D01*
G01X12154Y5128D01*
G01X12119Y5178D01*
G01X12075Y5216D01*
G01X12022Y5244D01*
G01X11962Y5260D01*
G01X11895Y5265D01*
G01X11826Y5256D01*
G01X11758Y5228D01*
G01X11693Y5185D01*
G01X11636Y5128D01*
G01X11640Y5213D01*
G01X11650Y5288D01*
G01X11663Y5354D01*
G01X11681Y5411D01*
G01X11703Y5460D01*
G01X11728Y5501D01*
G01X11757Y5535D01*
G01X11788Y5562D01*
G01X11821Y5581D01*
G01X11857Y5595D01*
G01X11894Y5603D01*
G01X11933Y5606D01*
G01X11983Y5600D01*
G01X12031Y5584D01*
G01X12075Y5558D01*
G01X12113Y5522D01*
G01X12182Y5598D01*
G01X12132Y5642D01*
G01X12074Y5678D01*
G01X12006Y5701D01*
G37*

%LPC*%
G36*
G01X11924Y5167D02*
G01X11875Y5171D01*
G01X11819Y5163D01*
G01X11760Y5138D01*
G01X11699Y5092D01*
G01X11641Y5024D01*
G01X11650Y4940D01*
G01X11665Y4867D01*
G01X11687Y4803D01*
G01X11715Y4750D01*
G01X11749Y4708D01*
G01X11789Y4678D01*
G01X11835Y4659D01*
G01X11887Y4653D01*
G01X11928Y4658D01*
G01X11965Y4673D01*
G01X11998Y4695D01*
G01X12027Y4726D01*
G01X12050Y4764D01*
G01X12068Y4809D01*
G01X12079Y4859D01*
G01X12083Y4915D01*
G01X12080Y4970D01*
G01X12070Y5021D01*
G01X12054Y5064D01*
G01X12032Y5101D01*
G01X12003Y5131D01*
G01X11967Y5153D01*
G01X11924Y5167D01*
G37*

%LPD*%

%LPD*%
G36*
G01X12197Y3150D02*
G01X11506Y3150D01*
G01X11506Y3043D01*
G01X12055Y3043D01*
G01X12015Y2986D01*
G01X11979Y2930D01*
G01X11945Y2873D01*
G01X11915Y2817D01*
G01X11887Y2760D01*
G01X11862Y2703D01*
G01X11840Y2645D01*
G01X11820Y2585D01*
G01X11803Y2524D01*
G01X11787Y2462D01*
G01X11774Y2397D01*
G01X11763Y2330D01*
G01X11754Y2261D01*
G01X11747Y2189D01*
G01X11741Y2113D01*
G01X11737Y2035D01*
G01X11867Y2035D01*
G01X11871Y2114D01*
G01X11875Y2191D01*
G01X11881Y2264D01*
G01X11889Y2334D01*
G01X11898Y2401D01*
G01X11910Y2466D01*
G01X11923Y2530D01*
G01X11940Y2591D01*
G01X11959Y2652D01*
G01X11981Y2712D01*
G01X12007Y2772D01*
G01X12037Y2831D01*
G01X12070Y2891D01*
G01X12108Y2951D01*
G01X12150Y3013D01*
G01X12197Y3076D01*
G01X12197Y3150D01*
G37*

%LPD*%

%LPD*%
G36*
G01X8245Y26010D02*
G01X7971Y26010D01*
G01X7971Y24895D01*
G01X8250Y24895D01*
G01X8311Y24897D01*
G01X8369Y24904D01*
G01X8423Y24916D01*
G01X8473Y24933D01*
G01X8519Y24954D01*
G01X8561Y24980D01*
G01X8600Y25010D01*
G01X8635Y25044D01*
G01X8665Y25082D01*
G01X8691Y25124D01*
G01X8714Y25170D01*
G01X8733Y25220D01*
G01X8747Y25274D01*
G01X8757Y25331D01*
G01X8764Y25392D01*
G01X8766Y25456D01*
G01X8764Y25520D01*
G01X8757Y25580D01*
G01X8747Y25637D01*
G01X8733Y25690D01*
G01X8714Y25740D01*
G01X8691Y25785D01*
G01X8665Y25827D01*
G01X8634Y25864D01*
G01X8599Y25898D01*
G01X8560Y25927D01*
G01X8518Y25952D01*
G01X8471Y25973D01*
G01X8420Y25989D01*
G01X8366Y26000D01*
G01X8307Y26007D01*
G01X8245Y26010D01*
G37*

%LPC*%
G36*
G01X8235Y25905D02*
G01X8098Y25905D01*
G01X8098Y24999D01*
G01X8235Y24999D01*
G01X8299Y25002D01*
G01X8358Y25013D01*
G01X8411Y25030D01*
G01X8458Y25054D01*
G01X8500Y25084D01*
G01X8536Y25121D01*
G01X8567Y25163D01*
G01X8592Y25211D01*
G01X8611Y25264D01*
G01X8625Y25323D01*
G01X8634Y25387D01*
G01X8636Y25456D01*
G01X8634Y25525D01*
G01X8625Y25589D01*
G01X8611Y25647D01*
G01X8592Y25700D01*
G01X8567Y25747D01*
G01X8536Y25788D01*
G01X8500Y25824D01*
G01X8458Y25853D01*
G01X8411Y25875D01*
G01X8358Y25892D01*
G01X8299Y25902D01*
G01X8235Y25905D01*
G37*

%LPD*%
G36*
G01X7325Y26010D02*
G01X7016Y26010D01*
G01X7016Y24895D01*
G01X7143Y24895D01*
G01X7143Y25347D01*
G01X7331Y25347D01*
G01X7390Y25349D01*
G01X7446Y25356D01*
G01X7498Y25367D01*
G01X7546Y25384D01*
G01X7589Y25405D01*
G01X7627Y25430D01*
G01X7661Y25460D01*
G01X7688Y25496D01*
G01X7710Y25536D01*
G01X7726Y25581D01*
G01X7736Y25632D01*
G01X7739Y25687D01*
G01X7736Y25743D01*
G01X7726Y25794D01*
G01X7710Y25838D01*
G01X7688Y25877D01*
G01X7660Y25910D01*
G01X7627Y25938D01*
G01X7588Y25961D01*
G01X7544Y25979D01*
G01X7496Y25993D01*
G01X7443Y26002D01*
G01X7386Y26008D01*
G01X7325Y26010D01*
G37*

%LPC*%
G36*
G01X7308Y25908D02*
G01X7143Y25908D01*
G01X7143Y25448D01*
G01X7313Y25448D01*
G01X7385Y25452D01*
G01X7447Y25462D01*
G01X7499Y25480D01*
G01X7541Y25506D01*
G01X7574Y25539D01*
G01X7597Y25580D01*
G01X7610Y25629D01*
G01X7615Y25687D01*
G01X7610Y25744D01*
G01X7596Y25792D01*
G01X7571Y25831D01*
G01X7538Y25860D01*
G01X7494Y25882D01*
G01X7441Y25897D01*
G01X7379Y25905D01*
G01X7308Y25908D01*
G37*

%LPD*%
G36*
G01X9429Y26021D02*
G01X9350Y26030D01*
G01X9310Y26028D01*
G01X9271Y26022D01*
G01X9233Y26012D01*
G01X9196Y25997D01*
G01X9161Y25978D01*
G01X9127Y25955D01*
G01X9096Y25926D01*
G01X9066Y25892D01*
G01X9040Y25854D01*
G01X9016Y25810D01*
G01X8995Y25760D01*
G01X8977Y25705D01*
G01X8963Y25644D01*
G01X8952Y25577D01*
G01X8945Y25505D01*
G01X8943Y25425D01*
G01X8946Y25338D01*
G01X8956Y25258D01*
G01X8971Y25185D01*
G01X8991Y25120D01*
G01X9017Y25063D01*
G01X9047Y25012D01*
G01X9082Y24970D01*
G01X9120Y24936D01*
G01X9163Y24909D01*
G01X9210Y24889D01*
G01X9259Y24878D01*
G01X9312Y24874D01*
G01X9373Y24881D01*
G01X9431Y24901D01*
G01X9484Y24932D01*
G01X9531Y24974D01*
G01X9569Y25027D01*
G01X9599Y25089D01*
G01X9618Y25158D01*
G01X9624Y25235D01*
G01X9619Y25317D01*
G01X9603Y25388D01*
G01X9577Y25448D01*
G01X9542Y25498D01*
G01X9498Y25536D01*
G01X9445Y25564D01*
G01X9385Y25580D01*
G01X9317Y25585D01*
G01X9249Y25576D01*
G01X9181Y25548D01*
G01X9117Y25505D01*
G01X9060Y25448D01*
G01X9064Y25533D01*
G01X9073Y25608D01*
G01X9086Y25674D01*
G01X9104Y25731D01*
G01X9125Y25780D01*
G01X9150Y25821D01*
G01X9179Y25855D01*
G01X9210Y25882D01*
G01X9243Y25901D01*
G01X9279Y25915D01*
G01X9316Y25923D01*
G01X9355Y25926D01*
G01X9406Y25920D01*
G01X9453Y25904D01*
G01X9498Y25878D01*
G01X9535Y25842D01*
G01X9606Y25918D01*
G01X9556Y25962D01*
G01X9497Y25998D01*
G01X9429Y26021D01*
G37*

%LPC*%
G36*
G01X9347Y25487D02*
G01X9296Y25491D01*
G01X9241Y25483D01*
G01X9182Y25458D01*
G01X9121Y25412D01*
G01X9063Y25344D01*
G01X9072Y25260D01*
G01X9087Y25187D01*
G01X9110Y25123D01*
G01X9138Y25070D01*
G01X9172Y25028D01*
G01X9213Y24998D01*
G01X9259Y24979D01*
G01X9312Y24973D01*
G01X9352Y24978D01*
G01X9389Y24993D01*
G01X9422Y25015D01*
G01X9451Y25046D01*
G01X9475Y25084D01*
G01X9493Y25129D01*
G01X9503Y25179D01*
G01X9507Y25235D01*
G01X9504Y25290D01*
G01X9495Y25341D01*
G01X9479Y25384D01*
G01X9456Y25421D01*
G01X9427Y25451D01*
G01X9390Y25473D01*
G01X9347Y25487D01*
G37*

%LPD*%

%LPD*%
G36*
G01X23919Y1882D02*
G01X23792Y1882D01*
G01X23731Y1849D01*
G01X23661Y1821D01*
G01X23582Y1798D01*
G01X23493Y1781D01*
G01X23493Y1671D01*
G01X23754Y1671D01*
G01X23754Y531D01*
G01X23421Y531D01*
G01X23421Y394D01*
G01X24222Y394D01*
G01X24222Y531D01*
G01X23919Y531D01*
G01X23919Y1882D01*
G37*

%LPD*%
G36*
G01X22400Y1491D02*
G01X22228Y1491D01*
G01X22629Y394D01*
G01X22822Y394D01*
G01X23213Y1491D01*
G01X23051Y1491D01*
G01X22835Y853D01*
G01X22809Y771D01*
G01X22782Y689D01*
G01X22756Y609D01*
G01X22731Y531D01*
G01X22723Y531D01*
G01X22696Y609D01*
G01X22670Y689D01*
G01X22644Y771D01*
G01X22619Y853D01*
G01X22400Y1491D01*
G37*

%LPD*%
G36*
G01X25515Y1904D02*
G01X25464Y1908D01*
G01X25412Y1904D01*
G01X25363Y1896D01*
G01X25318Y1881D01*
G01X25274Y1861D01*
G01X25233Y1834D01*
G01X25196Y1801D01*
G01X25161Y1763D01*
G01X25130Y1719D01*
G01X25102Y1668D01*
G01X25077Y1611D01*
G01X25056Y1549D01*
G01X25038Y1480D01*
G01X25025Y1405D01*
G01X25014Y1324D01*
G01X25008Y1236D01*
G01X25006Y1143D01*
G01X25008Y1049D01*
G01X25014Y960D01*
G01X25025Y878D01*
G01X25038Y802D01*
G01X25056Y733D01*
G01X25077Y669D01*
G01X25102Y612D01*
G01X25130Y560D01*
G01X25161Y515D01*
G01X25196Y476D01*
G01X25233Y443D01*
G01X25274Y416D01*
G01X25318Y395D01*
G01X25363Y380D01*
G01X25412Y371D01*
G01X25464Y368D01*
G01X25515Y371D01*
G01X25563Y380D01*
G01X25609Y395D01*
G01X25652Y416D01*
G01X25692Y443D01*
G01X25729Y476D01*
G01X25763Y515D01*
G01X25794Y560D01*
G01X25822Y612D01*
G01X25846Y669D01*
G01X25867Y733D01*
G01X25884Y802D01*
G01X25898Y878D01*
G01X25908Y960D01*
G01X25914Y1049D01*
G01X25916Y1143D01*
G01X25914Y1236D01*
G01X25908Y1324D01*
G01X25898Y1405D01*
G01X25884Y1480D01*
G01X25867Y1549D01*
G01X25846Y1611D01*
G01X25822Y1668D01*
G01X25794Y1719D01*
G01X25763Y1763D01*
G01X25729Y1801D01*
G01X25692Y1834D01*
G01X25652Y1861D01*
G01X25609Y1881D01*
G01X25563Y1896D01*
G01X25515Y1904D01*
G37*

%LPC*%
G36*
G01X25506Y1769D02*
G01X25464Y1773D01*
G01X25420Y1769D01*
G01X25380Y1757D01*
G01X25342Y1735D01*
G01X25308Y1706D01*
G01X25276Y1668D01*
G01X25248Y1621D01*
G01X25224Y1565D01*
G01X25204Y1499D01*
G01X25188Y1424D01*
G01X25176Y1341D01*
G01X25169Y1247D01*
G01X25166Y1143D01*
G01X25169Y1037D01*
G01X25176Y942D01*
G01X25188Y856D01*
G01X25204Y780D01*
G01X25224Y713D01*
G01X25248Y656D01*
G01X25276Y608D01*
G01X25308Y569D01*
G01X25342Y538D01*
G01X25380Y517D01*
G01X25420Y504D01*
G01X25464Y500D01*
G01X25506Y504D01*
G01X25546Y517D01*
G01X25583Y538D01*
G01X25617Y569D01*
G01X25648Y608D01*
G01X25675Y656D01*
G01X25699Y713D01*
G01X25719Y780D01*
G01X25735Y856D01*
G01X25746Y942D01*
G01X25753Y1037D01*
G01X25756Y1143D01*
G01X25753Y1247D01*
G01X25746Y1341D01*
G01X25735Y1424D01*
G01X25719Y1499D01*
G01X25699Y1565D01*
G01X25675Y1621D01*
G01X25648Y1668D01*
G01X25617Y1706D01*
G01X25583Y1735D01*
G01X25546Y1757D01*
G01X25506Y1769D01*
G37*

%LPD*%
G36*
G01X24677Y623D02*
G01X24628Y632D01*
G01X24581Y623D01*
G01X24541Y595D01*
G01X24514Y553D01*
G01X24503Y498D01*
G01X24514Y444D01*
G01X24541Y403D01*
G01X24581Y377D01*
G01X24628Y368D01*
G01X24677Y377D01*
G01X24717Y403D01*
G01X24745Y444D01*
G01X24755Y498D01*
G01X24745Y553D01*
G01X24717Y595D01*
G01X24677Y623D01*
G37*

%LPD*%

%LPD*%
G36*
G01X12259Y23551D02*
G01X12217Y23558D01*
G01X12176Y23551D01*
G01X12143Y23532D01*
G01X12121Y23501D01*
G01X12113Y23459D01*
G01X12121Y23419D01*
G01X12143Y23388D01*
G01X12176Y23367D01*
G01X12217Y23360D01*
G01X12259Y23367D01*
G01X12293Y23388D01*
G01X12316Y23419D01*
G01X12324Y23459D01*
G01X12316Y23501D01*
G01X12293Y23532D01*
G01X12259Y23551D01*
G37*

%LPD*%
G36*
G01X23531Y23179D02*
G01X23503Y23180D01*
G01X23423Y23165D01*
G01X23349Y23125D01*
G01X23284Y23061D01*
G01X23228Y22979D01*
G01X23223Y22979D01*
G01X23211Y23155D01*
G01X23094Y23155D01*
G01X23094Y22195D01*
G01X23236Y22195D01*
G01X23236Y22819D01*
G01X23291Y22926D01*
G01X23354Y22997D01*
G01X23420Y23036D01*
G01X23485Y23048D01*
G01X23509Y23047D01*
G01X23531Y23044D01*
G01X23552Y23039D01*
G01X23574Y23033D01*
G01X23602Y23157D01*
G01X23579Y23168D01*
G01X23556Y23175D01*
G01X23531Y23179D01*
G37*

%LPD*%
G36*
G01X20479Y23174D02*
G01X20409Y23180D01*
G01X20361Y23176D01*
G01X20315Y23167D01*
G01X20273Y23151D01*
G01X20232Y23131D01*
G01X20194Y23106D01*
G01X20156Y23078D01*
G01X20121Y23047D01*
G01X20086Y23015D01*
G01X20081Y23015D01*
G01X20066Y23155D01*
G01X19949Y23155D01*
G01X19949Y22195D01*
G01X20094Y22195D01*
G01X20094Y22896D01*
G01X20164Y22964D01*
G01X20230Y23013D01*
G01X20295Y23043D01*
G01X20366Y23053D01*
G01X20413Y23049D01*
G01X20452Y23037D01*
G01X20485Y23017D01*
G01X20512Y22989D01*
G01X20531Y22952D01*
G01X20546Y22906D01*
G01X20554Y22851D01*
G01X20556Y22786D01*
G01X20556Y22195D01*
G01X20704Y22195D01*
G01X20704Y22804D01*
G01X20699Y22891D01*
G01X20686Y22967D01*
G01X20663Y23031D01*
G01X20631Y23085D01*
G01X20590Y23126D01*
G01X20540Y23156D01*
G01X20479Y23174D01*
G37*

%LPD*%
G36*
G01X15583Y23495D02*
G01X15184Y23495D01*
G01X15184Y22195D01*
G01X15332Y22195D01*
G01X15332Y22756D01*
G01X15575Y22756D01*
G01X15900Y22195D01*
G01X16066Y22195D01*
G01X15730Y22771D01*
G01X15796Y22790D01*
G01X15855Y22816D01*
G01X15906Y22850D01*
G01X15950Y22892D01*
G01X15985Y22941D01*
G01X16011Y22998D01*
G01X16027Y23062D01*
G01X16033Y23134D01*
G01X16028Y23197D01*
G01X16017Y23254D01*
G01X16000Y23303D01*
G01X15975Y23346D01*
G01X15944Y23383D01*
G01X15907Y23415D01*
G01X15864Y23440D01*
G01X15817Y23461D01*
G01X15765Y23476D01*
G01X15708Y23487D01*
G01X15647Y23493D01*
G01X15583Y23495D01*
G37*

%LPC*%
G36*
G01X15560Y23378D02*
G01X15332Y23378D01*
G01X15332Y22878D01*
G01X15560Y22878D01*
G01X15634Y22882D01*
G01X15699Y22894D01*
G01X15755Y22913D01*
G01X15801Y22941D01*
G01X15837Y22977D01*
G01X15864Y23022D01*
G01X15880Y23074D01*
G01X15885Y23134D01*
G01X15880Y23196D01*
G01X15864Y23248D01*
G01X15837Y23290D01*
G01X15801Y23323D01*
G01X15755Y23348D01*
G01X15699Y23365D01*
G01X15634Y23375D01*
G01X15560Y23378D01*
G37*

%LPD*%
G36*
G01X14231Y23174D02*
G01X14161Y23180D01*
G01X14112Y23176D01*
G01X14067Y23167D01*
G01X14024Y23151D01*
G01X13984Y23131D01*
G01X13945Y23106D01*
G01X13907Y23078D01*
G01X13871Y23047D01*
G01X13835Y23015D01*
G01X13830Y23015D01*
G01X13818Y23155D01*
G01X13698Y23155D01*
G01X13698Y22195D01*
G01X13843Y22195D01*
G01X13843Y22896D01*
G01X13913Y22964D01*
G01X13979Y23013D01*
G01X14046Y23043D01*
G01X14117Y23053D01*
G01X14164Y23049D01*
G01X14203Y23037D01*
G01X14236Y23017D01*
G01X14262Y22989D01*
G01X14282Y22952D01*
G01X14297Y22906D01*
G01X14305Y22851D01*
G01X14308Y22786D01*
G01X14308Y22195D01*
G01X14453Y22195D01*
G01X14453Y22804D01*
G01X14448Y22891D01*
G01X14435Y22967D01*
G01X14413Y23031D01*
G01X14382Y23085D01*
G01X14341Y23126D01*
G01X14291Y23156D01*
G01X14231Y23174D01*
G37*

%LPD*%
G36*
G01X13154Y23174D02*
G01X13084Y23180D01*
G01X13035Y23176D01*
G01X12990Y23167D01*
G01X12947Y23151D01*
G01X12907Y23131D01*
G01X12868Y23106D01*
G01X12831Y23078D01*
G01X12796Y23047D01*
G01X12761Y23015D01*
G01X12756Y23015D01*
G01X12741Y23155D01*
G01X12624Y23155D01*
G01X12624Y22195D01*
G01X12769Y22195D01*
G01X12769Y22896D01*
G01X12839Y22964D01*
G01X12905Y23013D01*
G01X12971Y23043D01*
G01X13043Y23053D01*
G01X13089Y23049D01*
G01X13128Y23037D01*
G01X13160Y23017D01*
G01X13186Y22989D01*
G01X13206Y22952D01*
G01X13220Y22906D01*
G01X13228Y22851D01*
G01X13231Y22786D01*
G01X13231Y22195D01*
G01X13378Y22195D01*
G01X13378Y22804D01*
G01X13374Y22891D01*
G01X13360Y22967D01*
G01X13338Y23031D01*
G01X13306Y23085D01*
G01X13265Y23126D01*
G01X13214Y23156D01*
G01X13154Y23174D01*
G37*

%LPD*%
G36*
G01X12289Y23155D02*
G01X12146Y23155D01*
G01X12146Y22195D01*
G01X12289Y22195D01*
G01X12289Y23155D01*
G37*

%LPD*%
G36*
G01X11928Y23495D02*
G01X11186Y23495D01*
G01X11186Y22195D01*
G01X11336Y22195D01*
G01X11336Y22789D01*
G01X11836Y22789D01*
G01X11836Y22913D01*
G01X11336Y22913D01*
G01X11336Y23371D01*
G01X11928Y23371D01*
G01X11928Y23495D01*
G37*

%LPD*%
G36*
G01X22529Y23176D02*
G01X22471Y23180D01*
G01X22417Y23176D01*
G01X22363Y23164D01*
G01X22311Y23144D01*
G01X22262Y23118D01*
G01X22216Y23084D01*
G01X22174Y23043D01*
G01X22137Y22996D01*
G01X22104Y22943D01*
G01X22078Y22883D01*
G01X22058Y22818D01*
G01X22046Y22748D01*
G01X22042Y22672D01*
G01X22046Y22596D01*
G01X22058Y22526D01*
G01X22078Y22461D01*
G01X22104Y22402D01*
G01X22137Y22350D01*
G01X22175Y22304D01*
G01X22219Y22264D01*
G01X22267Y22232D01*
G01X22320Y22206D01*
G01X22376Y22187D01*
G01X22435Y22176D01*
G01X22497Y22172D01*
G01X22591Y22179D01*
G01X22673Y22200D01*
G01X22746Y22231D01*
G01X22812Y22268D01*
G01X22758Y22365D01*
G01X22704Y22332D01*
G01X22645Y22307D01*
G01X22582Y22292D01*
G01X22515Y22286D01*
G01X22446Y22293D01*
G01X22383Y22311D01*
G01X22328Y22342D01*
G01X22281Y22384D01*
G01X22243Y22435D01*
G01X22214Y22496D01*
G01X22195Y22565D01*
G01X22187Y22642D01*
G01X22842Y22642D01*
G01X22845Y22661D01*
G01X22848Y22683D01*
G01X22849Y22706D01*
G01X22850Y22730D01*
G01X22847Y22798D01*
G01X22838Y22860D01*
G01X22825Y22917D01*
G01X22805Y22970D01*
G01X22780Y23017D01*
G01X22750Y23059D01*
G01X22715Y23095D01*
G01X22676Y23125D01*
G01X22631Y23149D01*
G01X22582Y23166D01*
G01X22529Y23176D01*
G37*

%LPC*%
G36*
G01X22527Y23058D02*
G01X22471Y23063D01*
G01X22419Y23058D01*
G01X22369Y23042D01*
G01X22324Y23016D01*
G01X22282Y22980D01*
G01X22246Y22935D01*
G01X22218Y22881D01*
G01X22197Y22819D01*
G01X22184Y22748D01*
G01X22720Y22748D01*
G01X22716Y22821D01*
G01X22704Y22884D01*
G01X22683Y22938D01*
G01X22655Y22983D01*
G01X22619Y23018D01*
G01X22577Y23043D01*
G01X22527Y23058D01*
G37*

%LPD*%
G36*
G01X21168Y23609D02*
G01X21024Y23609D01*
G01X21024Y22195D01*
G01X21138Y22195D01*
G01X21156Y22294D01*
G01X21158Y22294D01*
G01X21225Y22241D01*
G01X21296Y22203D01*
G01X21367Y22180D01*
G01X21435Y22172D01*
G01X21490Y22176D01*
G01X21544Y22187D01*
G01X21595Y22207D01*
G01X21643Y22233D01*
G01X21688Y22267D01*
G01X21728Y22308D01*
G01X21764Y22356D01*
G01X21795Y22410D01*
G01X21820Y22471D01*
G01X21838Y22538D01*
G01X21850Y22611D01*
G01X21854Y22690D01*
G01X21851Y22761D01*
G01X21843Y22828D01*
G01X21830Y22891D01*
G01X21811Y22948D01*
G01X21786Y23000D01*
G01X21757Y23045D01*
G01X21722Y23085D01*
G01X21682Y23119D01*
G01X21637Y23145D01*
G01X21587Y23164D01*
G01X21531Y23176D01*
G01X21471Y23180D01*
G01X21389Y23169D01*
G01X21309Y23139D01*
G01X21232Y23094D01*
G01X21161Y23040D01*
G01X21168Y23218D01*
G01X21168Y23609D01*
G37*

%LPC*%
G36*
G01X21504Y23049D02*
G01X21438Y23056D01*
G01X21374Y23047D01*
G01X21308Y23022D01*
G01X21240Y22978D01*
G01X21168Y22918D01*
G01X21168Y22398D01*
G01X21234Y22349D01*
G01X21299Y22317D01*
G01X21360Y22299D01*
G01X21415Y22294D01*
G01X21475Y22301D01*
G01X21531Y22321D01*
G01X21580Y22355D01*
G01X21623Y22400D01*
G01X21657Y22457D01*
G01X21683Y22525D01*
G01X21699Y22603D01*
G01X21704Y22690D01*
G01X21701Y22768D01*
G01X21690Y22838D01*
G01X21670Y22901D01*
G01X21642Y22953D01*
G01X21606Y22997D01*
G01X21560Y23029D01*
G01X21504Y23049D01*
G37*

%LPD*%
G36*
G01X19384Y23176D02*
G01X19327Y23180D01*
G01X19272Y23176D01*
G01X19218Y23164D01*
G01X19166Y23144D01*
G01X19117Y23118D01*
G01X19071Y23084D01*
G01X19029Y23043D01*
G01X18992Y22996D01*
G01X18960Y22943D01*
G01X18934Y22883D01*
G01X18914Y22818D01*
G01X18902Y22748D01*
G01X18898Y22672D01*
G01X18902Y22596D01*
G01X18914Y22526D01*
G01X18933Y22461D01*
G01X18960Y22402D01*
G01X18992Y22350D01*
G01X19031Y22304D01*
G01X19074Y22264D01*
G01X19123Y22232D01*
G01X19175Y22206D01*
G01X19231Y22187D01*
G01X19290Y22176D01*
G01X19352Y22172D01*
G01X19446Y22179D01*
G01X19529Y22200D01*
G01X19602Y22231D01*
G01X19667Y22268D01*
G01X19614Y22365D01*
G01X19560Y22332D01*
G01X19502Y22307D01*
G01X19439Y22292D01*
G01X19370Y22286D01*
G01X19302Y22293D01*
G01X19240Y22311D01*
G01X19185Y22342D01*
G01X19137Y22384D01*
G01X19099Y22435D01*
G01X19070Y22496D01*
G01X19051Y22565D01*
G01X19042Y22642D01*
G01X19698Y22642D01*
G01X19701Y22661D01*
G01X19703Y22683D01*
G01X19705Y22706D01*
G01X19705Y22730D01*
G01X19702Y22798D01*
G01X19694Y22860D01*
G01X19680Y22917D01*
G01X19660Y22970D01*
G01X19635Y23017D01*
G01X19606Y23059D01*
G01X19571Y23095D01*
G01X19531Y23125D01*
G01X19487Y23149D01*
G01X19438Y23166D01*
G01X19384Y23176D01*
G37*

%LPC*%
G36*
G01X19385Y23058D02*
G01X19329Y23063D01*
G01X19277Y23058D01*
G01X19227Y23042D01*
G01X19181Y23016D01*
G01X19139Y22980D01*
G01X19103Y22935D01*
G01X19073Y22881D01*
G01X19052Y22819D01*
G01X19040Y22748D01*
G01X19578Y22748D01*
G01X19574Y22821D01*
G01X19561Y22884D01*
G01X19540Y22938D01*
G01X19512Y22983D01*
G01X19476Y23018D01*
G01X19434Y23043D01*
G01X19385Y23058D01*
G37*

%LPD*%
G36*
G01X18514Y23426D02*
G01X18392Y23426D01*
G01X18374Y23155D01*
G01X18225Y23144D01*
G01X18225Y23035D01*
G01X18369Y23035D01*
G01X18369Y22484D01*
G01X18372Y22417D01*
G01X18383Y22356D01*
G01X18401Y22303D01*
G01X18427Y22258D01*
G01X18463Y22221D01*
G01X18510Y22194D01*
G01X18567Y22177D01*
G01X18636Y22172D01*
G01X18678Y22175D01*
G01X18721Y22183D01*
G01X18765Y22194D01*
G01X18806Y22207D01*
G01X18778Y22316D01*
G01X18752Y22307D01*
G01X18723Y22299D01*
G01X18694Y22293D01*
G01X18667Y22291D01*
G01X18593Y22304D01*
G01X18547Y22341D01*
G01X18521Y22400D01*
G01X18514Y22479D01*
G01X18514Y23035D01*
G01X18778Y23035D01*
G01X18778Y23155D01*
G01X18514Y23155D01*
G01X18514Y23426D01*
G37*

%LPD*%
G36*
G01X17404Y23155D02*
G01X17259Y23155D01*
G01X17259Y22545D01*
G01X17263Y22458D01*
G01X17277Y22383D01*
G01X17299Y22318D01*
G01X17330Y22266D01*
G01X17371Y22225D01*
G01X17421Y22196D01*
G01X17481Y22178D01*
G01X17551Y22172D01*
G01X17599Y22175D01*
G01X17644Y22184D01*
G01X17687Y22200D01*
G01X17727Y22220D01*
G01X17765Y22246D01*
G01X17801Y22276D01*
G01X17837Y22309D01*
G01X17872Y22347D01*
G01X17877Y22347D01*
G01X17889Y22195D01*
G01X18009Y22195D01*
G01X18009Y23155D01*
G01X17864Y23155D01*
G01X17864Y22466D01*
G01X17795Y22391D01*
G01X17730Y22339D01*
G01X17664Y22308D01*
G01X17592Y22299D01*
G01X17545Y22302D01*
G01X17506Y22314D01*
G01X17473Y22333D01*
G01X17448Y22361D01*
G01X17428Y22398D01*
G01X17414Y22443D01*
G01X17407Y22498D01*
G01X17404Y22563D01*
G01X17404Y23155D01*
G37*

%LPD*%
G36*
G01X16687Y23177D02*
G01X16632Y23180D01*
G01X16575Y23177D01*
G01X16520Y23168D01*
G01X16468Y23155D01*
G01X16419Y23137D01*
G01X16373Y23118D01*
G01X16330Y23097D01*
G01X16292Y23074D01*
G01X16259Y23053D01*
G01X16317Y22951D01*
G01X16377Y22990D01*
G01X16447Y23024D01*
G01X16524Y23048D01*
G01X16609Y23058D01*
G01X16666Y23053D01*
G01X16711Y23036D01*
G01X16747Y23011D01*
G01X16774Y22978D01*
G01X16793Y22940D01*
G01X16805Y22897D01*
G01X16811Y22850D01*
G01X16812Y22802D01*
G01X16714Y22788D01*
G01X16625Y22773D01*
G01X16546Y22754D01*
G01X16476Y22734D01*
G01X16414Y22710D01*
G01X16361Y22682D01*
G01X16317Y22652D01*
G01X16280Y22617D01*
G01X16253Y22580D01*
G01X16233Y22537D01*
G01X16222Y22491D01*
G01X16218Y22441D01*
G01X16224Y22380D01*
G01X16239Y22326D01*
G01X16264Y22280D01*
G01X16298Y22242D01*
G01X16338Y22211D01*
G01X16386Y22189D01*
G01X16439Y22176D01*
G01X16497Y22172D01*
G01X16585Y22182D01*
G01X16669Y22212D01*
G01X16748Y22256D01*
G01X16820Y22311D01*
G01X16825Y22311D01*
G01X16838Y22195D01*
G01X16957Y22195D01*
G01X16957Y22789D01*
G01X16955Y22846D01*
G01X16949Y22899D01*
G01X16939Y22948D01*
G01X16924Y22994D01*
G01X16905Y23035D01*
G01X16881Y23072D01*
G01X16852Y23104D01*
G01X16819Y23131D01*
G01X16780Y23152D01*
G01X16736Y23167D01*
G01X16687Y23177D01*
G37*

%LPC*%
G36*
G01X16812Y22423D02*
G01X16812Y22703D01*
G01X16695Y22686D01*
G01X16597Y22666D01*
G01X16519Y22641D01*
G01X16457Y22612D01*
G01X16412Y22579D01*
G01X16381Y22541D01*
G01X16363Y22498D01*
G01X16358Y22451D01*
G01X16371Y22376D01*
G01X16409Y22326D01*
G01X16466Y22298D01*
G01X16535Y22288D01*
G01X16606Y22297D01*
G01X16674Y22323D01*
G01X16742Y22365D01*
G01X16812Y22423D01*
G37*

%LPD*%
G36*
G01X24103Y23178D02*
G01X24064Y23180D01*
G01X23992Y23174D01*
G01X23926Y23156D01*
G01X23865Y23127D01*
G01X23813Y23087D01*
G01X23769Y23037D01*
G01X23736Y22978D01*
G01X23716Y22912D01*
G01X23708Y22837D01*
G01X23719Y22756D01*
G01X23747Y22684D01*
G01X23787Y22624D01*
G01X23833Y22578D01*
G01X23833Y22570D01*
G01X23796Y22539D01*
G01X23761Y22499D01*
G01X23736Y22450D01*
G01X23726Y22393D01*
G01X23732Y22340D01*
G01X23750Y22297D01*
G01X23778Y22262D01*
G01X23813Y22235D01*
G01X23813Y22228D01*
G01X23753Y22180D01*
G01X23708Y22126D01*
G01X23680Y22068D01*
G01X23670Y22007D01*
G01X23677Y21948D01*
G01X23699Y21896D01*
G01X23733Y21852D01*
G01X23780Y21815D01*
G01X23837Y21786D01*
G01X23905Y21765D01*
G01X23982Y21752D01*
G01X24067Y21747D01*
G01X24137Y21751D01*
G01X24203Y21760D01*
G01X24264Y21774D01*
G01X24320Y21794D01*
G01X24370Y21819D01*
G01X24415Y21847D01*
G01X24453Y21879D01*
G01X24485Y21914D01*
G01X24511Y21952D01*
G01X24529Y21992D01*
G01X24540Y22034D01*
G01X24544Y22078D01*
G01X24539Y22133D01*
G01X24524Y22179D01*
G01X24498Y22218D01*
G01X24462Y22250D01*
G01X24416Y22274D01*
G01X24359Y22291D01*
G01X24292Y22301D01*
G01X24214Y22304D01*
G01X24023Y22304D01*
G01X23941Y22312D01*
G01X23887Y22336D01*
G01X23859Y22370D01*
G01X23851Y22413D01*
G01X23856Y22452D01*
G01X23870Y22484D01*
G01X23891Y22511D01*
G01X23917Y22535D01*
G01X23951Y22520D01*
G01X23988Y22508D01*
G01X24026Y22502D01*
G01X24064Y22499D01*
G01X24134Y22505D01*
G01X24199Y22523D01*
G01X24258Y22552D01*
G01X24309Y22591D01*
G01X24351Y22639D01*
G01X24383Y22696D01*
G01X24402Y22762D01*
G01X24409Y22835D01*
G01X24403Y22897D01*
G01X24386Y22954D01*
G01X24359Y23003D01*
G01X24326Y23043D01*
G01X24529Y23043D01*
G01X24529Y23155D01*
G01X24196Y23155D01*
G01X24169Y23164D01*
G01X24138Y23172D01*
G01X24103Y23178D01*
G37*

%LPC*%
G36*
G01X23937Y22190D02*
G01X23904Y22197D01*
G01X23856Y22157D01*
G01X23823Y22115D01*
G01X23803Y22071D01*
G01X23797Y22027D01*
G01X23802Y21988D01*
G01X23817Y21953D01*
G01X23841Y21923D01*
G01X23874Y21897D01*
G01X23915Y21877D01*
G01X23964Y21862D01*
G01X24022Y21852D01*
G01X24087Y21849D01*
G01X24155Y21854D01*
G01X24216Y21867D01*
G01X24270Y21887D01*
G01X24316Y21914D01*
G01X24353Y21945D01*
G01X24379Y21980D01*
G01X24396Y22017D01*
G01X24402Y22055D01*
G01X24389Y22114D01*
G01X24351Y22153D01*
G01X24288Y22175D01*
G01X24201Y22182D01*
G01X24026Y22182D01*
G01X24000Y22183D01*
G01X23970Y22186D01*
G01X23937Y22190D01*
G37*
G36*
G01X24107Y23067D02*
G01X24064Y23071D01*
G01X24020Y23067D01*
G01X23980Y23055D01*
G01X23943Y23036D01*
G01X23911Y23009D01*
G01X23885Y22976D01*
G01X23865Y22936D01*
G01X23853Y22889D01*
G01X23848Y22837D01*
G01X23853Y22785D01*
G01X23865Y22739D01*
G01X23886Y22698D01*
G01X23912Y22663D01*
G01X23944Y22636D01*
G01X23981Y22615D01*
G01X24021Y22603D01*
G01X24064Y22598D01*
G01X24106Y22603D01*
G01X24145Y22615D01*
G01X24182Y22636D01*
G01X24213Y22663D01*
G01X24240Y22698D01*
G01X24260Y22739D01*
G01X24273Y22785D01*
G01X24277Y22837D01*
G01X24273Y22889D01*
G01X24261Y22935D01*
G01X24241Y22975D01*
G01X24214Y23008D01*
G01X24183Y23035D01*
G01X24147Y23055D01*
G01X24107Y23067D01*
G37*

%LPD*%
M00*
M02*
